<?xml version="1.0" encoding="utf-8"?><svg width="80" height="80" viewBox="0 0 80 80" xmlns="http://www.w3.org/2000/svg" xmlns:xlink="http://www.w3.org/1999/xlink"><svg width="16" height="16" viewBox="0 0 16 16" id="add" x="16" xmlns="http://www.w3.org/2000/svg"><path d="M9.02 13.98h-2v-5h-5v-2h5v-5h2v5l5-.028V8.98h-5z"/></svg><svg width="16" height="16" version="1.1" viewBox="0 0 16 16" id="all" x="48" y="32" xmlns="http://www.w3.org/2000/svg"><circle cx="8" cy="8" r="6" fill="none" stroke="#000" stroke-width="2"/></svg><svg width="16" height="16" version="1.1" viewBox="0 0 16 16" id="alphabetically" y="16" xmlns="http://www.w3.org/2000/svg"><path d="m8.7428 12.5h-1.9141l-0.76109-2.0444h-3.4819l-0.7196 2.044h-1.8661l3.3939-9h1.8604l3.4885 9zm-3.2392-3.5611-1.2003-3.3393-1.1775 3.3393h2.3778z"/><path d="m8.9212 12.5v-1.6387l4.5763-5.8387h-4.0597v-1.5226h6.3772v1.4123l-4.7719 6.071h4.9569v1.5167h-7.0788z"/></svg><svg width="16" height="16" version="1.1" viewbox="0 0 16 16" viewBox="0 0 16 16" id="calendar" x="16" y="16" xmlns="http://www.w3.org/2000/svg"><path d="m4 1c-0.554 0-1 0.446-1 1v2c0 0.554 0.446 1 1 1s1-0.446 1-1v-2c0-0.554-0.446-1-1-1zm8 0c-0.554 0-1 0.446-1 1v2c0 0.554 0.446 1 1 1s1-0.446 1-1v-2c0-0.554-0.446-1-1-1zm-6.5 2v1c0 0.831-0.669 1.5-1.5 1.5s-1.5-0.669-1.5-1.5v-0.9375c-0.8841 0.227-1.5017 1.0247-1.5 1.9375v8c0 1.108 0.892 2 2 2h10c1.108 0 2-0.892 2-2v-8c0.0017-0.9128-0.61588-1.7105-1.5-1.9375v0.9375c0 0.831-0.669 1.5-1.5 1.5s-1.5-0.669-1.5-1.5v-1zm-2.453 4h9.906c0.02644-0.0012 0.0482 0.02056 0.047 0.047v5.906c0.0012 0.02644-0.02056 0.0482-0.047 0.047h-9.906c-0.02644 0.0012-0.048204-0.02056-0.047-0.047v-5.906c-0.0012-0.02644 0.02056-0.048205 0.047-0.047z"/></svg><svg height="16" width="16" version="1.1" viewBox="0 0 16 16" id="checkmark" x="32" xmlns="http://www.w3.org/2000/svg"><path d="m2.35 7.3 4 4l7.3-7.3" stroke="#000" stroke-width="2" fill="none"/></svg><svg width="16" height="16" version="1.1" viewBox="0 0 16 16" id="clock" x="32" y="16" xmlns="http://www.w3.org/2000/svg"><g fill="none" fill-opacity="0" stroke="#000" stroke-width="1.5"><circle cx="8" cy="8" r="5"/><path d="m5.1005 12.027-1.5 2.5981"/><path d="m10.9 12.027 1.5 2.5981"/><path d="m4.9731 1.6495-2.5981 1.5"/><path d="m11.027 1.6495 2.5981 1.5"/><path d="m8 5v3h2"/></g></svg><svg width="16" height="16" version="1.1" viewbox="0 0 16 16" viewBox="0 0 16 16" id="close" y="32" xmlns="http://www.w3.org/2000/svg"><path d="m12.95 11.536-1.414 1.414-3.536-3.536-3.535 3.536-1.415-1.414 3.536-3.536-3.536-3.536 1.415-1.414 3.535 3.536 3.516-3.555 1.434 1.434-3.536 3.535z"/></svg><svg width="16" height="16" version="1.1" viewBox="0 0 16 16" id="current" x="16" y="32" xmlns="http://www.w3.org/2000/svg"><path d="m1 8h4l1.5-4.0935 3 8.1875 1.5-4.094h4" fill="none" stroke="#000" stroke-miterlimit="10" stroke-width="2"/></svg><svg width="16" height="16" version="1.1" viewbox="0 0 16 16" viewBox="0 0 16 16" id="duedate" x="32" y="32" xmlns="http://www.w3.org/2000/svg"><path d="m4 1c-0.554 0-1 0.446-1 1v2c0 0.554 0.446 1 1 1s1-0.446 1-1v-2c0-0.554-0.446-1-1-1zm8 0c-0.554 0-1 0.446-1 1v2c0 0.554 0.446 1 1 1s1-0.446 1-1v-2c0-0.554-0.446-1-1-1zm-6.5 2v1c0 0.831-0.669 1.5-1.5 1.5s-1.5-0.669-1.5-1.5v-0.9375c-0.8841 0.227-1.5017 1.0247-1.5 1.9375v3h2v-0.95312c-0.0012-0.02644 0.020435-0.04808 0.046875-0.046875h9.9062c0.02644-0.0012 0.048075 0.020435 0.046875 0.046875v5.9062c0.0012 0.02644-0.020435 0.048075-0.046875 0.046875h-9.9062c-0.02644 0.0012-0.048079-0.020435-0.046875-0.046875v-0.95312h-2v1c0 1.108 0.892 2 2 2h10c1.108 0 2-0.892 2-2v-8c0.0017-0.9128-0.61588-1.7105-1.5-1.9375v0.9375c0 0.831-0.669 1.5-1.5 1.5s-1.5-0.669-1.5-1.5v-1z"/><path d="m4 7v1.5h-3v3h3v1.5l4-3z" fill="#070000" style="paint-order:normal"/></svg><svg width="16" height="16" version="1.1" viewBox="0 0 16 16" id="hide" x="48" xmlns="http://www.w3.org/2000/svg"><g fill="none" fill-opacity="0" stroke="#000" stroke-linecap="round" stroke-linejoin="round" stroke-width="1.5"><path d="m8.7576 14.243 6.4924-6.243-6.4924-6.2427"/><path d="m0.76074 8h14.479"/></g></svg><svg width="16" height="16" viewbox="0 0 16 16" viewBox="0 0 16 16" id="list" x="48" y="16" xmlns="http://www.w3.org/2000/svg"><path d="M2 2v2h12V2zm0 5v2h12V7zm0 5v2h12v-2z"/></svg><svg width="16" height="16" version="1.1" viewBox="0 0 16 16" id="manual" xmlns="http://www.w3.org/2000/svg"><g fill="none" fill-opacity="0" stroke="#000" stroke-linejoin="round" stroke-width="1.5"><rect x="4.75" y="1.75" width="9.5" height="9.5"/><polyline points="3.5 4.75 1.75 4.75 1.75 7"/><polyline points="1.75 12 1.75 14.25 4 14.25"/><polyline points="9 14.25 11.25 14.25 11.25 13"/><line x1="1.75" x2="1.75" y1="8" y2="11"/><line x1="5" x2="8" y1="14.25" y2="14.25"/></g></svg><svg width="16" height="16" version="1" viewBox="0 0 16 16" id="note" y="48" xmlns="http://www.w3.org/2000/svg"><path d="M2.35 1.002A.45.45 0 0 0 2 1.44V14.56c0 .232.206.44.432.44H13.57a.452.452 0 0 0 .432-.438V4.42a.458.458 0 0 0-.055-.192l-3.312-3.2a.427.427 0 0 0-.135-.026H2.43a.424.424 0 0 0-.08 0zM4 3h6v1H4V3zm0 3h5v1H4V6zm0 3h8v1H4V9zm0 3h4v1H4v-1z" style="block-progression:tb;text-indent:0;text-transform:none"/></svg><svg width="16" height="16" version="1.1" viewBox="0 0 16 16" id="percent" x="16" y="48" xmlns="http://www.w3.org/2000/svg"><g fill="none" fill-opacity="0" stroke="#000" stroke-linecap="round" stroke-width="1.5"><circle cx="4" cy="4" r="2.25"/><path d="m11.603 1.7597-7.206 12.481"/><circle cx="12" cy="12" r="2.25"/></g></svg><svg width="16" height="16" version="1.0" viewBox="0 0 16 16" id="pinned" x="32" y="48" xmlns="http://www.w3.org/2000/svg"><g transform="matrix(0.05333333,0,0,-0.05333333,-8.9728808,16.481355)" style="fill:#000000;stroke:none"><path d="m 238.24153,294.02543 c 0,-8 5,-15 10,-15 17,0 12,-116.00001 -5,-130.00001 -8,-7 -15,-21 -15,-31 0,-15 7,-18.999996 35,-18.999996 35,0 35,0 35,-45 0,-38 3,-45.0000003 20,-45.0000003 17,0 20,7.0000003 20,45.0000003 0,45 0,45 35,45 28,0 35,3.999996 35,18.999996 0,10 -7,24 -15,31 -17,14 -22,130.00001 -5,130.00001 6,0 10,7 10,15 0,12 -16,15 -80,15 -64,0 -80,-3 -80,-15 z"/></g></svg><svg width="16" height="16" version="1.0" viewBox="0 0 16 16" id="pinned-off" x="48" y="48" xmlns="http://www.w3.org/2000/svg"><g transform="matrix(0.05333333,0,0,-0.05333333,-1.5999999,17.599999)" style="fill:#000000;stroke:none"><path d="m 100,315 c 0,-8 5,-15 10,-15 6,0 10,-10 10,-23 0,-15 24,-46 68,-90 37,-37 71,-67 75,-67 13,0 7,37 -8,50 -17,14 -22,130 -5,130 6,0 10,7 10,15 0,12 -16,15 -80,15 -64,0 -80,-3 -80,-15 z"/><path d="m 30,288 c 0,-7 20,-33 46,-59 39,-40 43,-47 30,-59 -9,-7 -16,-21 -16,-31 0,-15 7,-19 35,-19 35,0 35,0 35,-45 0,-38 3,-45 20,-45 16,0 20,7 20,37 v 37 L 238,67 C 277,29 300,20 300,43 300,59 59,300 42,300 36,300 30,295 30,288 Z"/></g></svg><svg width="16" height="16" version="1.1" viewbox="0 0 16 16" viewBox="0 0 16 16" id="startdate" x="64" xmlns="http://www.w3.org/2000/svg"><path d="m4 1c-0.554 0-1 0.446-1 1v2c0 0.554 0.446 1 1 1s1-0.446 1-1v-2c0-0.554-0.446-1-1-1zm8 0c-0.554 0-1 0.446-1 1v2c0 0.554 0.446 1 1 1s1-0.446 1-1v-2c0-0.554-0.446-1-1-1zm-6.5 2v1c0 0.831-0.669 1.5-1.5 1.5s-1.5-0.669-1.5-1.5v-0.9375c-0.8841 0.227-1.5017 1.0247-1.5 1.9375v8c0 1.108 0.892 2 2 2h10c1.108 0 2-0.892 2-2v-2.5l-2 1.5v0.95312c0.0012 0.02644-0.020435 0.048075-0.046875 0.046875h-9.9062c-0.02644 0.0012-0.048079-0.020435-0.046875-0.046875v-5.9062c-0.0012-0.02644 0.020435-0.04808 0.046875-0.046875h9.9062c0.02644-0.0012 0.048075 0.020435 0.046875 0.046875v0.95312l2 1.5v-4.5c0.0017-0.9128-0.61588-1.7105-1.5-1.9375v0.9375c0 0.831-0.669 1.5-1.5 1.5s-1.5-0.669-1.5-1.5v-1z"/><path d="m11 7v1.5h-3v3h3v1.5l4-3z" fill="#070000" style="paint-order:normal"/></svg><svg width="16" height="16" version="1.1" viewbox="0 0 16 16" viewBox="0 0 16 16" id="subtasks-hidden" x="64" y="16" xmlns="http://www.w3.org/2000/svg"><path d="m2 2v2h12v-2z"/><path d="m6 7v2h8v-2zm4 5v2h4v-2z" opacity=".5"/></svg><svg width="16" height="16" version="1.1" viewbox="0 0 16 16" viewBox="0 0 16 16" id="subtasks-visible" x="64" y="32" xmlns="http://www.w3.org/2000/svg"><path d="m2 2v2h12v-2zm4 5v2h8v-2zm4 5v2h4v-2z"/></svg><svg width="16" height="16" viewBox="0 0 16 16" id="tag" x="64" y="48" xmlns="http://www.w3.org/2000/svg"><path d="m1.3594 1c-0.2723 0-0.3584 0.2237-0.3594 0.3594v4.791l8.7012 8.7016c0.1946 0.197 0.5048 0.197 0.6988 0l4.454-4.452c0.197-0.194 0.196-0.5051 0-0.7008l-8.7036-8.6992h-4.791zm2.4648 1.5a1.325 1.325 0 0 1 1.3262 1.3242 1.325 1.325 0 0 1-1.3262 1.3262 1.325 1.325 0 0 1-1.3242-1.3262 1.325 1.325 0 0 1 1.3242-1.3242z"/></svg><svg width="16" height="16" version="1.1" viewBox="0 0 16 16" id="task-star" y="64" xmlns="http://www.w3.org/2000/svg"><path d="m8 0.2 2.2 5.5 5.8 0.4-4.5 3.7 1.5 5.7-5-3.1-5 3.1 1.5-5.7-4.5-3.7 5.8-0.4z"/></svg><svg width="16" height="16" viewBox="0 0 16 16" id="toggle" x="16" y="64" xmlns="http://www.w3.org/2000/svg"><path d="m8 3c-3.11 0-5.927 1.72-8 4.5 2.073 2.78 4.89 4.5 8 4.5s5.927-1.72 8-4.5c-2.073-2.78-4.89-4.5-8-4.5zm0 1.5a3 3 0 1 1 0 6 3 3 0 0 1 0-6zm0 1.5a1.5 1.5 0 1 0 0 3 1.5 1.5 0 0 0 0-3z"/></svg><svg width="16" height="16" version="1.1" viewbox="0 0 16 16" viewBox="0 0 16 16" id="trash" x="32" y="64" xmlns="http://www.w3.org/2000/svg"><path d="M6.5 1L6 2H3c-.554 0-1 .446-1 1v1h12V3c0-.554-.446-1-1-1h-3l-.5-1zM3 5l.875 9c.06.55.573 1 1.125 1h6c.552 0 1.064-.45 1.125-1L13 5z"/></svg></svg>