<?xml version="1.0" encoding="utf-8"?><svg width="64" height="64" viewBox="0 0 64 64" xmlns="http://www.w3.org/2000/svg" xmlns:xlink="http://www.w3.org/1999/xlink"><svg width="16" height="16" version="1.1" viewbox="0 0 16 16" viewBox="0 0 16 16" id="calendar-due" x="16" xmlns="http://www.w3.org/2000/svg"><path d="m4 1c-0.554 0-1 0.446-1 1v2c0 0.554 0.446 1 1 1s1-0.446 1-1v-2c0-0.554-0.446-1-1-1zm8 0c-0.554 0-1 0.446-1 1v2c0 0.554 0.446 1 1 1s1-0.446 1-1v-2c0-0.554-0.446-1-1-1zm-6.5 2v1c0 0.831-0.669 1.5-1.5 1.5s-1.5-0.669-1.5-1.5v-0.9375c-0.8841 0.227-1.5017 1.0247-1.5 1.9375v8c0 1.108 0.892 2 2 2h10c1.108 0 2-0.892 2-2v-8c0.0017-0.9128-0.61588-1.7105-1.5-1.9375v0.9375c0 0.831-0.669 1.5-1.5 1.5s-1.5-0.669-1.5-1.5v-1zm-2.453 4h9.906c0.02644-0.0012 0.0482 0.02056 0.047 0.047v5.906c0.0012 0.02644-0.02056 0.0482-0.047 0.047h-9.906c-0.02644 0.0012-0.048204-0.02056-0.047-0.047v-5.906c-0.0012-0.02644 0.02056-0.048205 0.047-0.047z" fill="#4574A9"/></svg><svg width="16" height="16" version="1.1" viewbox="0 0 16 16" viewBox="0 0 16 16" id="calendar-overdue" x="32" y="32" xmlns="http://www.w3.org/2000/svg"><path d="m4 1c-0.554 0-1 0.446-1 1v2c0 0.554 0.446 1 1 1s1-0.446 1-1v-2c0-0.554-0.446-1-1-1zm8 0c-0.554 0-1 0.446-1 1v2c0 0.554 0.446 1 1 1s1-0.446 1-1v-2c0-0.554-0.446-1-1-1zm-6.5 2v1c0 0.831-0.669 1.5-1.5 1.5s-1.5-0.669-1.5-1.5v-0.9375c-0.8841 0.227-1.5017 1.0247-1.5 1.9375v8c0 1.108 0.892 2 2 2h10c1.108 0 2-0.892 2-2v-8c0.0017-0.9128-0.61588-1.7105-1.5-1.9375v0.9375c0 0.831-0.669 1.5-1.5 1.5s-1.5-0.669-1.5-1.5v-1zm-2.453 4h9.906c0.02644-0.0012 0.0482 0.02056 0.047 0.047v5.906c0.0012 0.02644-0.02056 0.0482-0.047 0.047h-9.906c-0.02644 0.0012-0.048204-0.02056-0.047-0.047v-5.906c-0.0012-0.02644 0.02056-0.048205 0.047-0.047z" fill="#CE3433"/></svg><svg height="16" width="16" version="1.1" viewBox="0 0 16 16" id="checkmark-color" y="16" xmlns="http://www.w3.org/2000/svg"><path d="m2.35 7.3 4 4l7.3-7.3" stroke="#71b73d" stroke-width="2" fill="none"/></svg><svg width="16" height="16" version="1.1" viewBox="0 0 16 16" id="clock-due" x="16" y="16" xmlns="http://www.w3.org/2000/svg"><g fill="none" fill-opacity="0" stroke="#4574A9" stroke-width="1.5"><circle cx="8" cy="8" r="5"/><path d="m5.1005 12.027-1.5 2.5981"/><path d="m10.9 12.027 1.5 2.5981"/><path d="m4.9731 1.6495-2.5981 1.5"/><path d="m11.027 1.6495 2.5981 1.5"/><path d="m8 5v3h2"/></g></svg><svg width="16" height="16" version="1.1" viewBox="0 0 16 16" id="clock-overdue" x="32" xmlns="http://www.w3.org/2000/svg"><g fill="none" fill-opacity="0" stroke="#CE3433" stroke-width="1.5"><circle cx="8" cy="8" r="5"/><path d="m5.1005 12.027-1.5 2.5981"/><path d="m10.9 12.027 1.5 2.5981"/><path d="m4.9731 1.6495-2.5981 1.5"/><path d="m11.027 1.6495 2.5981 1.5"/><path d="m8 5v3h2"/></g></svg><svg width="16" height="16" version="1.1" viewbox="0 0 16 16" viewBox="0 0 16 16" id="duedate-due" x="32" y="16" xmlns="http://www.w3.org/2000/svg"><path d="m4 1c-0.554 0-1 0.446-1 1v2c0 0.554 0.446 1 1 1s1-0.446 1-1v-2c0-0.554-0.446-1-1-1zm8 0c-0.554 0-1 0.446-1 1v2c0 0.554 0.446 1 1 1s1-0.446 1-1v-2c0-0.554-0.446-1-1-1zm-6.5 2v1c0 0.831-0.669 1.5-1.5 1.5s-1.5-0.669-1.5-1.5v-0.9375c-0.8841 0.227-1.5017 1.0247-1.5 1.9375v3h2v-0.95312c-0.0012-0.02644 0.020435-0.04808 0.046875-0.046875h9.9062c0.02644-0.0012 0.048075 0.020435 0.046875 0.046875v5.9062c0.0012 0.02644-0.020435 0.048075-0.046875 0.046875h-9.9062c-0.02644 0.0012-0.048079-0.020435-0.046875-0.046875v-0.95312h-2v1c0 1.108 0.892 2 2 2h10c1.108 0 2-0.892 2-2v-8c0.0017-0.9128-0.61588-1.7105-1.5-1.9375v0.9375c0 0.831-0.669 1.5-1.5 1.5s-1.5-0.669-1.5-1.5v-1z" fill="#4574A9"/><path d="m4 7v1.5h-3v3h3v1.5l4-3z" fill="#4574A9" style="paint-order:normal"/></svg><svg width="16" height="16" version="1.1" viewbox="0 0 16 16" viewBox="0 0 16 16" id="duedate-overdue" y="32" xmlns="http://www.w3.org/2000/svg"><path d="m4 1c-0.554 0-1 0.446-1 1v2c0 0.554 0.446 1 1 1s1-0.446 1-1v-2c0-0.554-0.446-1-1-1zm8 0c-0.554 0-1 0.446-1 1v2c0 0.554 0.446 1 1 1s1-0.446 1-1v-2c0-0.554-0.446-1-1-1zm-6.5 2v1c0 0.831-0.669 1.5-1.5 1.5s-1.5-0.669-1.5-1.5v-0.9375c-0.8841 0.227-1.5017 1.0247-1.5 1.9375v3h2v-0.95312c-0.0012-0.02644 0.020435-0.04808 0.046875-0.046875h9.9062c0.02644-0.0012 0.048075 0.020435 0.046875 0.046875v5.9062c0.0012 0.02644-0.020435 0.048075-0.046875 0.046875h-9.9062c-0.02644 0.0012-0.048079-0.020435-0.046875-0.046875v-0.95312h-2v1c0 1.108 0.892 2 2 2h10c1.108 0 2-0.892 2-2v-8c0.0017-0.9128-0.61588-1.7105-1.5-1.9375v0.9375c0 0.831-0.669 1.5-1.5 1.5s-1.5-0.669-1.5-1.5v-1z" fill="#CE3433"/><path d="m4 7v1.5h-3v3h3v1.5l4-3z" fill="#CE3433" style="paint-order:normal"/></svg><svg width="16" height="16" version="1.1" viewBox="0 0 16 16" id="percent-active" x="16" y="32" xmlns="http://www.w3.org/2000/svg"><g fill="none" fill-opacity="0" stroke="#4574a9" stroke-linecap="round" stroke-width="1.5"><circle cx="4" cy="4" r="2.25" fill="none"/><path d="m11.603 1.7597-7.206 12.481"/><circle cx="12" cy="12" r="2.25"/></g></svg><svg width="16" height="16" viewBox="0 0 16 16" id="privacy" xmlns="http://www.w3.org/2000/svg"><path d="m8 3c-3.11 0-5.927 1.72-8 4.5 2.073 2.78 4.89 4.5 8 4.5s5.927-1.72 8-4.5c-2.073-2.78-4.89-4.5-8-4.5zm0 1.5a3 3 0 1 1 0 6 3 3 0 0 1 0-6zm0 1.5a1.5 1.5 0 1 0 0 3 1.5 1.5 0 0 0 0-3z" fill="#4574A9"/></svg><svg width="16" height="16" version="1.1" viewbox="0 0 16 16" viewBox="0 0 16 16" id="startdate-due" x="48" xmlns="http://www.w3.org/2000/svg"><path d="m4 1c-0.554 0-1 0.446-1 1v2c0 0.554 0.446 1 1 1s1-0.446 1-1v-2c0-0.554-0.446-1-1-1zm8 0c-0.554 0-1 0.446-1 1v2c0 0.554 0.446 1 1 1s1-0.446 1-1v-2c0-0.554-0.446-1-1-1zm-6.5 2v1c0 0.831-0.669 1.5-1.5 1.5s-1.5-0.669-1.5-1.5v-0.9375c-0.8841 0.227-1.5017 1.0247-1.5 1.9375v8c0 1.108 0.892 2 2 2h10c1.108 0 2-0.892 2-2v-2.5l-2 1.5v0.95312c0.0012 0.02644-0.020435 0.048075-0.046875 0.046875h-9.9062c-0.02644 0.0012-0.048079-0.020435-0.046875-0.046875v-5.9062c-0.0012-0.02644 0.020435-0.04808 0.046875-0.046875h9.9062c0.02644-0.0012 0.048075 0.020435 0.046875 0.046875v0.95312l2 1.5v-4.5c0.0017-0.9128-0.61588-1.7105-1.5-1.9375v0.9375c0 0.831-0.669 1.5-1.5 1.5s-1.5-0.669-1.5-1.5v-1z" fill="#4574A9"/><path d="m11 7v1.5h-3v3h3v1.5l4-3z" fill="#4574A9" style="paint-order:normal"/></svg><svg width="16" height="16" version="1.1" viewbox="0 0 16 16" viewBox="0 0 16 16" id="startdate-overdue" x="48" y="16" xmlns="http://www.w3.org/2000/svg"><path d="m4 1c-0.554 0-1 0.446-1 1v2c0 0.554 0.446 1 1 1s1-0.446 1-1v-2c0-0.554-0.446-1-1-1zm8 0c-0.554 0-1 0.446-1 1v2c0 0.554 0.446 1 1 1s1-0.446 1-1v-2c0-0.554-0.446-1-1-1zm-6.5 2v1c0 0.831-0.669 1.5-1.5 1.5s-1.5-0.669-1.5-1.5v-0.9375c-0.8841 0.227-1.5017 1.0247-1.5 1.9375v8c0 1.108 0.892 2 2 2h10c1.108 0 2-0.892 2-2v-2.5l-2 1.5v0.95312c0.0012 0.02644-0.020435 0.048075-0.046875 0.046875h-9.9062c-0.02644 0.0012-0.048079-0.020435-0.046875-0.046875v-5.9062c-0.0012-0.02644 0.020435-0.04808 0.046875-0.046875h9.9062c0.02644-0.0012 0.048075 0.020435 0.046875 0.046875v0.95312l2 1.5v-4.5c0.0017-0.9128-0.61588-1.7105-1.5-1.9375v0.9375c0 0.831-0.669 1.5-1.5 1.5s-1.5-0.669-1.5-1.5v-1z" fill="#CE3433"/><path d="m11 7v1.5h-3v3h3v1.5l4-3z" fill="#CE3433" style="paint-order:normal"/></svg><svg width="16" height="16" version="1.1" viewBox="0 0 16 16" id="status" x="48" y="32" xmlns="http://www.w3.org/2000/svg"><path d="m1 8h4l1.5-4.0935 3 8.1875 1.5-4.094h4" fill="none" stroke="#4574A9" stroke-miterlimit="10" stroke-width="2"/></svg><svg width="16" height="16" version="1.1" viewBox="0 0 16 16" id="tag-active" y="48" xmlns="http://www.w3.org/2000/svg"><path d="m1.3594 1c-0.2723 0-0.3584 0.2237-0.3594 0.3594v4.791l8.7012 8.7016c0.1946 0.197 0.5048 0.197 0.6988 0l4.454-4.452c0.197-0.194 0.196-0.5051 0-0.7008l-8.7036-8.6992h-4.791zm2.4648 1.5a1.325 1.325 0 0 1 1.3262 1.3242 1.325 1.325 0 0 1-1.3262 1.3262 1.325 1.325 0 0 1-1.3242-1.3262 1.325 1.325 0 0 1 1.3242-1.3242z" fill="#4574a9"/></svg><svg width="16" height="16" version="1.1" viewBox="0 0 16 16" id="task-star-high" x="16" y="48" xmlns="http://www.w3.org/2000/svg"><path d="m8 0.2 2.2 5.5 5.8 0.4-4.5 3.7 1.5 5.7-5-3.1-5 3.1 1.5-5.7-4.5-3.7 5.8-0.4z" fill="#CE3433"/></svg><svg width="16" height="16" version="1.1" viewBox="0 0 16 16" id="task-star-low" x="32" y="48" xmlns="http://www.w3.org/2000/svg"><path d="m8 0.2 2.2 5.5 5.8 0.4-4.5 3.7 1.5 5.7-5-3.1-5 3.1 1.5-5.7-4.5-3.7 5.8-0.4z" fill="#4574A9"/></svg><svg width="16" height="16" version="1.1" viewBox="0 0 16 16" id="task-star-medium" x="48" y="48" xmlns="http://www.w3.org/2000/svg"><path d="m8 0.2 2.2 5.5 5.8 0.4-4.5 3.7 1.5 5.7-5-3.1-5 3.1 1.5-5.7-4.5-3.7 5.8-0.4z" fill="#FFCC0C"/></svg></svg>